<svg xmlns="http://www.w3.org/2000/svg" width="32" height="32" fill="none"><g clip-path="url(#a)"><path fill="#FB0" d="M25.333 10.06H24.24l-2.267-6.807a2.903 2.903 0 0 0-.976-1.39 2.527 2.527 0 0 0-1.53-.53h-2.134C16.6 1.333 16 1.988 16 2.788s.6 1.454 1.333 1.454h2.134l1.946 5.819H15l-.48-1.455h.12c.733 0 1.333-.654 1.333-1.454 0-.8-.6-1.455-1.333-1.455h-3.973c-.734 0-1.334.655-1.334 1.455s.6 1.454 1.334 1.454h1l2.426 7.273H13.2c-.587-3.244-3.08-5.644-6.2-5.804-3.733-.203-7 3.186-7 7.258 0 4.073 2.933 7.273 6.667 7.273 3.28 0 5.933-2.458 6.533-5.818h5.6c.587 3.244 3.08 5.644 6.2 5.804 3.733.189 7-3.186 7-7.273 0-4.058-2.933-7.258-6.667-7.258ZM8 18.789h2.427c-.56 1.789-2.134 3.025-4.027 2.895-1.987-.131-3.64-1.964-3.733-4.146-.094-2.545 1.693-4.567 4-4.567 1.773 0 3.226 1.207 3.76 2.909H8c-.733 0-1.333.654-1.333 1.454 0 .8.6 1.455 1.333 1.455Zm10.8-2.91h-1.867l-.973-2.908H20a7.198 7.198 0 0 0-1.2 2.909Zm6.373 5.819c-2.053-.087-3.786-1.993-3.84-4.247-.026-1.397.52-2.618 1.4-3.433l.827 2.473c.253.756 1.013 1.149 1.707.873.693-.277 1.053-1.106.8-1.862l-.84-2.517.013-.014a3.666 3.666 0 0 1 1.566.29c.499.21.953.53 1.336.937.382.408.685.896.89 1.435.205.54.307 1.118.301 1.701 0 2.502-1.84 4.451-4.16 4.364ZM14.667 28.97H9.333l8 4.363v-2.909h5.334l-8-4.363v2.909Z"/></g><defs><clipPath id="a"><path fill="#fff" d="M0 0h32v32H0z"/></clipPath></defs></svg>